<svg xmlns:dc="http://purl.org/dc/elements/1.1/" xmlns:cc="http://creativecommons.org/ns#" xmlns:rdf="http://www.w3.org/1999/02/22-rdf-syntax-ns#" xmlns:svg="http://www.w3.org/2000/svg" xmlns="http://www.w3.org/2000/svg" xmlns:sodipodi="http://sodipodi.sourceforge.net/DTD/sodipodi-0.dtd" xmlns:inkscape="http://www.inkscape.org/namespaces/inkscape" version="1.1" x="0px" y="0px" viewBox="0 3 100 112"><g transform="translate(0,-952.36218)"><path style="font-size:medium;font-style:normal;font-variant:normal;font-weight:normal;font-stretch:normal;text-indent:0;text-align:start;text-decoration:none;line-height:normal;letter-spacing:normal;word-spacing:normal;text-transform:none;direction:ltr;block-progression:tb;writing-mode:lr-tb;text-anchor:start;baseline-shift:baseline;opacity:1;color:#000000;fill:#000000;fill-opacity:1;stroke:none;stroke-width:4;marker:none;visibility:visible;display:inline;overflow:visible;enable-background:accumulate;font-family:Sans;-inkscape-font-specification:Sans" d="M 17.78125 13.96875 A 2.0002 2.0002 0 0 0 16 16 L 16 84 A 2.0002 2.0002 0 0 0 18 86 L 82 86 A 2.0002 2.0002 0 1 0 82 82 L 20 82 L 20 16 A 2.0002 2.0002 0 0 0 17.78125 13.96875 z M 67.8125 28 A 2.0021961 2.0021961 0 1 0 68 32 L 75.15625 32 L 57.84375 49.3125 L 50.21875 43.40625 A 2.0002 2.0002 0 0 0 47.59375 43.5625 L 24.59375 66.5625 A 2.0002 2.0002 0 1 0 27.40625 69.40625 L 49.15625 47.65625 L 56.78125 53.5625 A 2.0002 2.0002 0 0 0 59.40625 53.40625 L 78 34.8125 L 78 42 A 2.0002 2.0002 0 1 0 82 42 L 82 30 A 2.0002 2.0002 0 0 0 80 28 L 68 28 A 2.0002 2.0002 0 0 0 67.8125 28 z " transform="translate(0,952.36218)"/></g></svg>