<svg xmlns:x="http://ns.adobe.com/Extensibility/1.0/" xmlns:i="http://ns.adobe.com/AdobeIllustrator/10.0/" xmlns:graph="http://ns.adobe.com/Graphs/1.0/" xmlns="http://www.w3.org/2000/svg" xmlns:xlink="http://www.w3.org/1999/xlink" xmlns:a="http://ns.adobe.com/AdobeSVGViewerExtensions/3.0/" version="1.1" x="0px" y="0px" viewBox="0 0 100 125" enable-background="new 0 0 100 100" xml:space="preserve"><metadata><?xpacket begin="&#65279;" id="W5M0MpCehiHzreSzNTczkc9d"?><x:xmpmeta xmlns:x="adobe:ns:meta/" x:xmptk="Adobe XMP Core 5.5-c014 79.151739, 2013/04/03-12:12:15        "/><?xpacket end="w"?></metadata><path  d="M57.5,59c2.2060547,0,4-1.7944336,4-4s-1.7939453-4-4-4s-4,1.7944336-4,4S55.2939453,59,57.5,59z"/><path d="M47.5,39c2.2060547,0,4-1.7944336,4-4s-1.7939453-4-4-4s-4,1.7944336-4,4S45.2939453,39,47.5,39z"/><path d="M67.5,74c2.2060547,0,4-1.7944336,4-4s-1.7939453-4-4-4s-4,1.7944336-4,4S65.2939453,74,67.5,74z"/><path d="M75,31.5c2.2060547,0,4-1.7944336,4-4s-1.7939453-4-4-4s-4,1.7944336-4,4S72.7939453,31.5,75,31.5z"/><path d="M37.5,54c2.2060547,0,4-1.7944336,4-4s-1.7939453-4-4-4s-4,1.7944336-4,4S35.2939453,54,37.5,54z"/><path   d="M27.5,69c2.2060547,0,4-1.7944336,4-4s-1.7939453-4-4-4s-4,1.7944336-4,4S25.2939453,69,27.5,69z"/><path stroke="currentColor" stroke-width="1.5" d="M16.5,82.5v-69h-3v73h73v-3h-69C16.9472656,83.5,16.5,83.0522461,16.5,82.5z"/></svg>