<svg xmlns="http://www.w3.org/2000/svg" data-name="Layer 3" viewBox="0 0 128 160" x="0px" y="0px"><path d="M78.28,54.74c-1.39-.32-2.65-.97-3.71-1.86l-8.34,16.61c1.39,.32,2.65,.97,3.71,1.86l8.34-16.61Z"/><path d="M57.54,83.84c-.9-1.05-1.56-2.3-1.89-3.69l-17.53,8.97c.9,1.05,1.56,2.3,1.89,3.68l17.53-8.97Z"/><path d="M84.89,38.62c1.19,.73,2.2,1.74,2.93,2.93l13.54-13.5c.94-.94,2.56-.27,2.56,1.06v1.42c0,1.14,.93,2.07,2.08,2.07s2.08-.93,2.08-2.07v-10.03c0-1.14-.93-2.07-2.08-2.07h-10.06c-1.14,0-2.08,.93-2.08,2.07s.93,2.07,2.08,2.07c.89,0,2.31-.27,2.8,.93,.23,.56,.1,1.21-.33,1.64l-13.52,13.49Z"/><path d="M31.42,100.7c3.47,0,6.19-3.02,5.81-6.47-.33-2.97-2.89-5.19-5.81-5.19-3.22,0-5.84,2.62-5.84,5.83s2.62,5.83,5.84,5.83Z"/><path d="M60.33,82.41c3.72,3.34,9.75,.75,9.75-4.33,0-2.93-2.25-5.5-5.25-5.8-5.56-.56-8.72,6.33-4.5,10.13Z"/><path d="M75.02,48.66c2.87,5.95,11.88,3.27,11.06-3.25-.37-2.94-2.9-5.1-5.79-5.1-4.23,0-7.15,4.43-5.26,8.35Z"/><path d="M12.08,117.85H115.92c1.14,0,2.08-.93,2.08-2.07s-.93-2.07-2.08-2.07H15.65c-.83,0-1.5-.67-1.5-1.5V12.22c0-1.14-.93-2.07-2.08-2.07s-2.08,.93-2.08,2.07V115.78c0,1.14,.93,2.07,2.08,2.07Z"/><text x="0" y="143" fill="#000000" font-size="5px" font-weight="bold" font-family="'Helvetica Neue', Helvetica, Arial-Unicode, Arial, Sans-serif">Created by sfahru</text><text x="0" y="148" fill="#000000" font-size="5px" font-weight="bold" font-family="'Helvetica Neue', Helvetica, Arial-Unicode, Arial, Sans-serif">from the Noun Project</text></svg>